HIERARCHY
ROOT Hips
{
	OFFSET 0 0 0
	CHANNELS 6 Xposition Yposition Zposition Xrotation Yrotation Zrotation
	JOINT RightHandThumb1
	{
		OFFSET -1.78 -1.1 1.54
		CHANNELS 3 Xrotation Yrotation Zrotation
		JOINT RightHandThumb2
		{
			OFFSET -3.15004 0 0
			CHANNELS 3 Xrotation Yrotation Zrotation
			JOINT RightHandThumb3
			{
				OFFSET -3.52369 0 0
				CHANNELS 3 Xrotation Yrotation Zrotation
				JOINT RightHandThumb4
				{
					OFFSET -2.58404 0 0
					CHANNELS 3 Xrotation Yrotation Zrotation
					End Site
					{
						OFFSET -0 0 0
					}
				}
			}
		}
	}
	JOINT RightHandIndex1
	{
		OFFSET -7.4073 0.785551 3.77204
		CHANNELS 3 Xrotation Yrotation Zrotation
		JOINT RightHandIndex2
		{
			OFFSET -4.08729 0 0
			CHANNELS 3 Xrotation Yrotation Zrotation
			JOINT RightHandIndex3
			{
				OFFSET -1.89986 0 0
				CHANNELS 3 Xrotation Yrotation Zrotation
				JOINT RightHandIndex4
				{
					OFFSET -1.78024 0 0
					CHANNELS 3 Xrotation Yrotation Zrotation
					End Site
					{
						OFFSET -0 0 0
					}
				}
			}
		}
	}
	JOINT RightHandMiddle1
	{
		OFFSET -8.35792 1.13445 0.717983
		CHANNELS 3 Xrotation Yrotation Zrotation
		JOINT RightHandMiddle2
		{
			OFFSET -4.6 0 0
			CHANNELS 3 Xrotation Yrotation Zrotation
			JOINT RightHandMiddle3
			{
				OFFSET -2.13026 0 0
				CHANNELS 3 Xrotation Yrotation Zrotation
				JOINT RightHandMiddle4
				{
					OFFSET -1.56219 0 0
					CHANNELS 3 Xrotation Yrotation Zrotation
					End Site
					{
						OFFSET -0 0 0
					}
				}
			}
		}
	}
	JOINT RightHandRing1
	{
		OFFSET -7.73062 0.64105 -2.07729
		CHANNELS 3 Xrotation Yrotation Zrotation
		JOINT RightHandRing2
		{
			OFFSET -4.33866 0 0
			CHANNELS 3 Xrotation Yrotation Zrotation
			JOINT RightHandRing3
			{
				OFFSET -2.22865 0 0
				CHANNELS 3 Xrotation Yrotation Zrotation
				JOINT RightHandRing4
				{
					OFFSET -1.63434 0 0
					CHANNELS 3 Xrotation Yrotation Zrotation
					End Site
					{
						OFFSET -0 0 0
					}
				}
			}
		}
	}
	JOINT RightHandPinky1
	{
		OFFSET -7.64414 -0.346801 -3.91753
		CHANNELS 3 Xrotation Yrotation Zrotation
		JOINT RightHandPinky2
		{
			OFFSET -2.756 0 0
			CHANNELS 3 Xrotation Yrotation Zrotation
			JOINT RightHandPinky3
			{
				OFFSET -2.1983 0 0
				CHANNELS 3 Xrotation Yrotation Zrotation
				JOINT RightHandPinky4
				{
					OFFSET -1.30207 0 0
					CHANNELS 3 Xrotation Yrotation Zrotation
					End Site
					{
						OFFSET -0 0 0
					}
				}
			}
		}
	}
}
MOTION
Frames: 18
Frame Time: 0.00833333
-13.11940002 26.32380676 16.91753082 -170.09553647 84.75167246 -164.9783746 -9.58804381 21.61599314 34.17417835 0.00000018 -26.43803047 0.00000076 0.00000002 -8.54491816 0.00000023 0 -0 0 -9.0781706 12.92302282 -6.88695465 -0 0 0.0089079 -0 0 -14.12579193 -0 0 0 3.03825401 7.55557175 8.59372789 -0 0 57.72715527 -0 0 20.18879453 -0 0 0 -9.7517253 6.93535714 30.14916175 -0 0 66.69257904 -0 0 36.38010639 -0 0 0 -7.70938677 0.12358103 52.20362917 -0 0 42.37936682 -0 0 18.15532416 -0 0 0
-13.12245636 26.27287903 16.90162506 -172.34358507 84.64634657 -163.04045828 -9.81623935 21.49626353 34.10645849 0.0000002 -27.61386922 0.0000008 0.00000002 -8.87245521 0.00000024 -0 0 -0 -9.18786391 12.96875099 -6.61235655 -0 0 0.00212219 -0 0 -14.20684597 -0 0 0 3.16725519 7.09010773 8.44383521 -0 0 54.07135527 -0 0 18.80190561 -0 0 0 -9.94855316 6.97876379 30.2563025 -0 0 66.56563758 -0 0 36.30236226 -0 0 0 -7.84997612 0.15654206 52.39024036 -0 0 42.40288304 -0 0 18.14778837 -0 0 0
-13.11704407 26.23601379 16.88370514 -173.43734005 84.60313807 -162.22871444 -10.02464501 21.3887255 34.00303494 0.00000022 -28.96663148 0.00000085 0.00000002 -9.2321689 0.00000025 -0 0 -0 -9.19854475 13.09022716 -6.40678683 -0 0 -0.07566159 -0 0 -14.23613893 -0 0 0 3.37273844 6.6731844 8.27963176 -0 0 50.45922784 -0 0 17.47199563 -0 0 0 -10.03521539 7.04973132 30.313089 -0 0 66.43989996 -0 0 36.23638304 -0 0 0 -7.90087994 0.21937448 52.54071138 -0 0 42.44761955 -0 0 18.18427986 -0 0 0
-13.12328033 26.18251343 16.86325989 -176.22119143 84.50958122 -159.87451592 -10.31953 21.22405786 33.92190534 0.00000024 -30.25079792 0.0000009 0.00000002 -9.618616 0.00000026 -0 0 0 -9.41074831 13.26484824 -6.1176223 -0 0 -0.14004049 -0 0 -14.33042931 -0 0 0 3.33545357 6.3170157 8.24205993 -0 0 47.00600588 -0 0 16.25613112 -0 0 0 -10.32163955 7.10028088 30.4998525 -0 0 66.34298694 -0 0 36.19583249 -0 0 0 -8.15990626 0.27661703 52.840673 -0 0 42.512654 -0 0 18.21863323 -0 0 0
-13.12242584 26.14560547 16.84282074 -178.01899614 84.41129933 -158.31459958 -10.57215133 21.08633036 33.75939618 0.00000027 -31.60559038 0.00000094 0.00000002 -10.05989208 0.00000027 -0 -0 -0 -9.48485316 13.49427865 -6.04566522 -0 0 -0.09269975 -0 0 -14.57864608 -0 0 0 3.33753801 6.00287121 8.06417856 -0 0 43.63195515 -0 0 14.99375413 -0 0 0 -10.46098593 7.18447705 30.50688587 -0 0 66.28184966 -0 0 36.17502368 -0 0 0 -8.32424136 0.35992509 52.94894405 -0 0 42.60285342 -0 0 18.26960935 -0 0 0
-13.12556458 26.11013794 16.82324219 179.80779207 84.2742456 -156.34412057 -10.8048965 20.95874165 33.56877699 0.00000029 -32.94258355 0.00000099 0.00000003 -10.49058436 0.00000028 -0 0 0 -9.54339683 13.71250192 -6.0058347 -0 0 -0.19287208 -0 0 -14.68872426 -0 0 0 3.28203622 5.75741612 7.90933305 -0 0 40.15077681 -0 0 13.61245393 -0 0 0 -10.62835839 7.28899484 30.5346988 -0 0 66.21900902 -0 0 36.13583596 -0 0 0 -8.51697051 0.4674981 53.07152132 -0 0 42.71355106 -0 0 18.32222081 -0 0 0
-13.13070221 26.06722717 16.80311737 177.89669898 84.14640833 -154.75082214 -11.02464153 20.83676688 33.45949089 0.00000032 -34.10893418 0.00000104 0.00000003 -10.84093726 0.00000029 -0 -0 0 -9.56562753 13.88761903 -5.83235933 -0 0 -0.2700788 -0 0 -14.8002736 -0 0 0 3.24158897 5.52210552 7.90463591 -0 0 36.64769502 -0 0 12.31027494 -0 0 0 -10.78174867 7.38700286 30.77928438 -0 0 66.1930758 -0 0 36.139483 -0 0 0 -8.64727153 0.55990056 53.37596036 -0 0 42.83546083 -0 0 18.37810259 -0 0 0
-13.1342453 26.0450592 16.78420715 174.99135165 84.01527692 -152.01481087 -11.23426215 20.72056696 33.36835725 0.00000034 -34.98733667 0.00000107 0.00000003 -11.15775614 0.0000003 -0 -0 0 -9.67589956 14.09512634 -5.81801463 -0 0 -0.23958457 -0 0 -15.05522275 -0 0 0 3.07909007 5.28068386 7.76619532 -0 0 33.6553584 -0 0 11.49321271 -0 0 0 -11.00063412 7.55629599 30.90877788 -0 0 66.16358857 -0 0 36.11648936 -0 0 0 -8.85265057 0.68101625 53.56048454 -0 0 42.92682141 -0 0 18.39971144 -0 0 0
-13.13576202 26.02402344 16.76774445 173.21027398 83.91847837 -150.38044078 -11.40728224 20.62462339 33.25473185 0.00000036 -35.86263796 0.00000111 0.00000003 -11.52475635 0.00000031 -0 0 -0 -9.74421753 14.26808457 -5.77840705 -0 0 -0.17968384 -0 0 -15.34405694 -0 0 0 2.92603684 5.04637964 7.68973385 -0 0 31.33610783 -0 0 10.89809167 -0 0 0 -11.09230304 7.63050506 30.99238776 -0 0 66.10730025 -0 0 36.07569771 -0 0 0 -8.96021102 0.7430637 53.71242861 -0 0 42.98610875 -0 0 18.41435108 -0 0 0
-13.14289856 26.01470032 16.75243835 172.35033987 83.78220576 -149.56285611 -11.57292863 20.5313536 33.04932175 0.00000038 -36.78427938 0.00000115 0.00000003 -11.92731425 0.00000032 -0 0 -0 -9.74338949 14.37010213 -5.80977832 -0 0 -0.15850362 -0 0 -15.54094311 -0 0 0 2.84318312 4.80495979 7.52602047 -0 0 29.17842304 -0 0 10.05930556 -0 0 0 -11.13517898 7.61576118 30.95968621 -0 0 66.04194081 -0 0 36.03864485 -0 0 0 -9.03859307 0.72786881 53.75616359 -0 0 43.02851226 -0 0 18.42689429 -0 0 0
-13.14544373 26.01141663 16.73674011 171.96904797 83.70452591 -149.17235791 -11.68611319 20.4665186 32.80179869 0.0000004 -37.65024798 0.00000118 0.00000004 -12.2585851 0.00000033 -0 0 -0 -9.66936947 14.49122462 -5.89298099 -0 0 -0.14565201 -0 0 -15.69614249 -0 0 0 2.86713351 4.56233763 7.30542979 -0 0 26.84879948 -0 0 9.08534304 -0 0 0 -11.09933727 7.65943137 30.85382146 -0 0 65.97178408 -0 0 35.99816517 -0 0 0 -9.07607305 0.74318794 53.73589338 -0 0 43.05793481 -0 0 18.43360916 -0 0 0
-13.14442749 26.00491943 16.71811981 172.06465731 83.65413486 -149.25013198 -11.746058 20.42773862 32.56421611 0.00000042 -38.30502692 0.00000121 0.00000004 -12.42505548 0.00000034 0 -0 -0 -9.54772573 14.64476368 -6.05058965 -0 0 -0.20496128 -0 0 -15.81571115 -0 0 0 2.89216143 4.25251263 7.03861192 -0 0 24.34628541 -0 0 8.07860179 -0 0 0 -10.84956965 7.8098756 30.75255285 -0 0 66.02348471 -0 0 36.0819713 -0 0 0 -9.00689012 0.70122375 53.67723725 -0 0 43.09362673 -0 0 18.45720716 -0 0 0
-13.15106659 26.01101379 16.702771 172.06969107 83.53769238 -149.15221572 -11.7351843 20.42383495 32.3334718 0.00000044 -38.92530284 0.00000124 0.00000004 -12.59868483 0.00000034 0 -0 0 -9.41120862 14.75871585 -6.35580016 -0 0 -0.28533897 -0 0 -15.90115946 -0 0 0 2.90112682 3.87399898 6.66534949 -0 0 21.71156935 -0 0 7.03209204 -0 0 0 -10.6367599 7.9236018 30.51462335 -0 0 66.09705685 -0 0 36.11514263 -0 0 0 -8.95661978 0.61323851 53.54067172 -0 0 43.15147154 -0 0 18.49129795 -0 0 0
-13.15323334 26.01507874 16.68690796 172.24596673 83.47705627 -149.25953038 -11.678389 20.44060532 32.08342869 0.00000046 -39.54064274 0.00000127 0.00000004 -12.81039843 0.00000035 -0 -0 0 -9.26844973 14.89634544 -6.57229978 -0 0 -0.18413837 -0 0 -16.19527168 -0 0 0 2.89112736 3.50371996 6.36331086 -0 0 18.74929207 -0 0 6.18485045 -0 0 0 -10.38005245 8.10513214 30.34519964 -0 0 66.16488252 -0 0 36.15191992 -0 0 0 -8.93650981 0.6063773 53.47966906 -0 0 43.24203688 -0 0 18.54494819 -0 0 0
-13.15755615 26.01273193 16.67115326 171.83410663 83.39070961 -148.82448645 -11.64643503 20.43653671 31.85151539 0.00000047 -40.04001775 0.00000129 0.00000004 -13.00435599 0.00000035 -0 0 0 -9.22408398 15.06044689 -6.69774741 -0 0 -0.08521791 -0 0 -16.50793574 -0 0 0 2.76315565 3.20094747 6.16594237 -0 0 16.17773079 -0 0 4.88920449 -0 0 0 -10.20333657 8.28700434 30.25403019 -0 0 66.21743847 -0 0 36.17318343 -0 0 0 -8.94861152 0.61315821 53.50588741 -0 0 43.31679217 -0 0 18.56191382 -0 0 0
-13.16662292 25.98852234 16.65502625 170.89762522 83.25792726 -148.02296907 -11.69092956 20.38558839 31.77656547 0.00000048 -40.29719936 0.0000013 0.00000004 -13.14984831 0.00000036 0 -0 -0 -9.3053963 15.21357016 -6.68839232 -0 0 -0.12733725 -0 0 -16.70468765 -0 0 0 2.6330569 2.9402571 6.13181546 -0 0 14.12995667 -0 0 2.8414293 -0 0 0 -10.1090366 8.4101414 30.29859257 -0 0 66.23445633 -0 0 36.16810002 -0 0 0 -8.98451839 0.58395474 53.65353585 -0 0 43.36377139 -0 0 18.57221288 -0 0 0
-13.17055817 25.95988464 16.63943787 169.74663243 83.15846798 -147.01494521 -11.74527723 20.3276601 31.80801876 0.00000048 -40.47458872 0.00000131 0.00000004 -13.37499156 0.00000037 -0 -0 -0 -9.42407444 15.4178691 -6.67127111 -0 0 -0.177349 -0 0 -16.88244449 -0 0 0 2.47757023 2.69549277 6.12836646 -0 0 11.98478146 -0 0 0.69625324 -0 0 0 -10.05915715 8.5739802 30.37007843 -0 0 66.2714416 -0 0 36.20164813 -0 0 0 -9.02067552 0.59272373 53.81168485 -0 0 43.40600066 -0 0 18.59145908 -0 0 0
-13.17051392 25.93972473 16.62557526 169.65284194 83.08259745 -146.94782591 -11.77185708 20.28553902 31.81033825 0.00000049 -40.75411184 0.00000132 0.00000004 -13.5871262 0.00000037 -0 -0 0 -9.39603538 15.58669968 -6.72366257 -0 0 -0.10621691 -0 0 -17.17539762 -0 0 0 2.38795523 2.39249575 6.05657809 -0 0 7.07493279 -0 0 1.30207178 -0 0 0 -9.88712952 8.68991934 30.35560784 -0 0 66.30214667 -0 0 36.21158273 -0 0 0 -8.94943069 0.55172741 53.88400818 -0 0 43.45322842 -0 0 18.61399528 -0 0 0
